<?xml version="1.0" encoding="UTF-8" standalone="no"?>
<!DOCTYPE svg PUBLIC "-//W3C//DTD SVG 20010904//EN" "http://www.w3.org/TR/2001/REC-SVG-20010904/DTD/svg10.dtd">
<svg version="1.0" xmlns="http://www.w3.org/2000/svg" width="1000.000000pt" height="1000.000000pt" viewBox="0 0 1000.000000 1000.000000" preserveAspectRatio="xMidYMid meet"><script xmlns=""/>
<metadata>
Created by potrace 1.10, written by Peter Selinger 2001-2011
</metadata>
<g transform="translate(0.000000,1000.000000) scale(0.050000,-0.050000)" fill="#000000" stroke="none">
<path d="M5290 18637 c-320 -40 -681 -166 -957 -332 -168 -102 -493 -357 -493 -387 0 -20 354 -532 377 -546 7 -4 82 48 167 116 964 775 2154 543 2156 -421 1 -590 -461 -927 -1269 -927 l-291 0 0 -340 0 -340 285 0 c1084 -1 1711 -548 1506 -1317 -225 -846 -1760 -974 -2622 -218 -114 100 -99 110 -306 -186 -215 -306 -207 -274 -88 -380 518 -462 1424 -717 2197 -620 1852 233 2252 2258 595 3013 l-153 70 173 104 c538 323 758 669 759 1194 2 974 -917 1659 -2036 1517z"/>
<path d="M2240 17042 c-476 -156 -481 -836 -6 -974 382 -111 695 106 696 482 0 365 -339 607 -690 492z"/>
<path d="M2264 13720 c-475 -99 -520 -819 -60 -971 410 -136 772 132 730 540 -33 318 -321 503 -670 431z"/>
</g>
</svg>