<?xml version="1.0" standalone="no"?>
<!DOCTYPE svg PUBLIC "-//W3C//DTD SVG 20010904//EN"
 "http://www.w3.org/TR/2001/REC-SVG-20010904/DTD/svg10.dtd">
<svg version="1.0" xmlns="http://www.w3.org/2000/svg"
 width="1000.000000pt" height="1000.000000pt" viewBox="0 0 1000.000000 1000.000000"
 preserveAspectRatio="xMidYMid meet">

<g transform="translate(0.000000,1000.000000) scale(0.100000,-0.100000)"
fill="#000000" stroke="none">
<path d="M6035 8500 c-468 -29 -934 -188 -1334 -455 -180 -120 -447 -345 -438
-369 3 -6 100 -147 217 -314 l212 -302 50 42 c382 329 750 525 1128 600 149
29 460 32 578 5 335 -77 599 -261 719 -503 126 -250 136 -612 24 -858 -126
-278 -392 -489 -727 -575 -186 -49 -226 -53 -586 -58 l-348 -5 0 -378 0 -378
383 -5 c415 -5 513 -15 712 -72 259 -75 439 -178 611 -349 208 -208 305 -417
321 -691 10 -194 -19 -349 -98 -511 -133 -273 -396 -475 -747 -573 -174 -49
-304 -65 -512 -65 -185 0 -253 7 -450 46 -444 87 -927 315 -1203 568 -33 30
-62 49 -66 44 -5 -5 -104 -146 -221 -313 l-212 -304 38 -34 c232 -202 401
-316 653 -442 489 -246 973 -351 1551 -338 135 3 293 13 353 21 561 80 1044
321 1365 679 442 495 555 1219 276 1767 -144 284 -336 493 -639 697 -92 62
-308 176 -432 230 -62 26 -113 50 -113 53 0 3 48 30 107 60 372 193 659 464
811 765 11 22 36 88 55 145 62 185 86 411 67 609 -54 564 -385 1050 -901 1320
-358 188 -762 269 -1204 241z"/>
<path d="M2510 6714 c-254 -54 -420 -271 -420 -549 0 -271 158 -481 407 -542
90 -22 275 -21 366 1 223 53 370 222 396 456 36 324 -127 575 -414 635 -87 18
-249 18 -335 -1z"/>
<path d="M2580 3029 c-248 -26 -425 -183 -475 -420 -69 -326 101 -616 402
-683 138 -31 343 -16 458 34 54 24 137 87 175 135 87 110 121 213 121 370 0
179 -47 310 -150 414 -117 120 -307 174 -531 150z"/>
</g>
</svg>
